<svg width="25" height="19" viewBox="0 0 25 19" fill="none" xmlns="http://www.w3.org/2000/svg">
<path d="M25 9.5C25 9.81331 24.8519 10.1016 24.5827 10.3397L15.6435 18.6491C15.3608 18.8872 15.0781 19 14.7684 19C14.0953 19 13.5837 18.5488 13.5837 17.9222C13.5837 17.6214 13.7049 17.3206 13.9203 17.1326L16.9224 14.2751L21.4728 10.4275L18.2014 10.6154H1.18471C0.484683 10.6154 8.29411e-07 10.1517 8.29411e-07 9.5C8.29411e-07 8.84826 0.484683 8.38458 1.18471 8.38458H18.2014L21.4593 8.57255L16.9224 4.72492L13.9203 1.86742C13.6914 1.66684 13.5837 1.37862 13.5837 1.07782C13.5837 0.451161 14.0953 0 14.7684 0C15.0781 0 15.3743 0.100264 15.6704 0.375977L24.5827 8.6603C24.8519 8.89842 25 9.1867 25 9.5Z" fill="#66A2BF"/>
</svg>
