<svg width="429" height="1" viewBox="0 0 429 1" fill="none" xmlns="http://www.w3.org/2000/svg">
<mask id="path-1-inside-1_253_293" fill="white">
<path d="M0 0.5C0 0.223858 0.223858 0 0.5 0H214.5H428.5C428.776 0 429 0.223858 429 0.5V0.5C429 0.776142 428.776 1 428.5 1H214.5H0.500003C0.223861 1 0 0.776142 0 0.5V0.5Z"/>
</mask>
<path d="M0 0.5C0 0.223858 0.223858 0 0.5 0H214.5H428.5C428.776 0 429 0.223858 429 0.5V0.5C429 0.776142 428.776 1 428.5 1H214.5H0.500003C0.223861 1 0 0.776142 0 0.5V0.5Z" fill="white"/>
<path d="M0.5 2H214.5V-2H0.5V2ZM214.5 2H428.5V-2H214.5V2ZM428.5 -1H214.5V3H428.5V-1ZM214.5 -1H0.500003V3H214.5V-1ZM-2 0.5C-2 1.88073 -0.88069 3 0.500003 3V-1C1.32841 -1 2 -0.328445 2 0.5H-2ZM427 0.5C427 -0.328427 427.672 -1 428.5 -1V3C429.881 3 431 1.88071 431 0.5H427ZM431 0.5C431 -0.88073 429.881 -2 428.5 -2V2C427.672 2 427 1.32845 427 0.5H431ZM2 0.5C2 1.32843 1.32843 2 0.5 2V-2C-0.880712 -2 -2 -0.880712 -2 0.5H2Z" fill="#316476" fill-opacity="0.4" mask="url(#path-1-inside-1_253_293)"/>
</svg>
